<svg xmlns="http://www.w3.org/2000/svg" xmlns:xlink="http://www.w3.org/1999/xlink" viewBox="0 0 1024 1024"><defs><style>.cls-1{fill:url(#linear-gradient);}.cls-2{fill:none;stroke:#ededee;stroke-miterlimit:10;stroke-width:27.5px;}.cls-3{fill:#ededee;}</style><linearGradient id="linear-gradient" x1="512" y1="1024" x2="512" gradientUnits="userSpaceOnUse"><stop offset="0" stop-color="#ee243e"/><stop offset="1" stop-color="#ed1a6b"/></linearGradient></defs><g id="Layer_2" data-name="Layer 2"><g id="Layer_1-2" data-name="Layer 1"><rect class="cls-1" width="1024" height="1024" rx="200.4"/><path class="cls-2" d="M747.23,558.27,608.31,697.19l-63.66,63.66a43.5,43.5,0,0,1-61.54,0l-63.66-63.66-21.07-21.08L280.53,558.27c-198.6-175.76,20.1-422.89,218.7-247.13a22.65,22.65,0,0,0,29.28,0C721.92,139.63,939.16,366.35,747.23,558.27Z"/><path class="cls-3" d="M535.48,715.24,514.46,608a.66.66,0,0,0-1.3,0l-21,107.28a22.31,22.31,0,1,0,44,5.29A22,22,0,0,0,535.48,715.24Zm-23,16.37a11.15,11.15,0,1,1,11.59-15.41,10.94,10.94,0,0,1,.87,4.33A11.16,11.16,0,0,1,512.5,731.61Z"/><path class="cls-3" d="M595.67,567.39,563,601.13a88.44,88.44,0,0,0-98.57.07l-32.63-33.74a132.85,132.85,0,0,1,163.84-.07Z"/><path class="cls-3" d="M652.54,659.69l-25.17,25.17H609.24a94.69,94.69,0,0,0-41.67-79l32.64-33.74A141.65,141.65,0,0,1,652.54,659.69Z"/><path class="cls-3" d="M459.91,605.89a94.74,94.74,0,0,0-41.57,79H400.4l-25.33-25.33a141.76,141.76,0,0,1,52.21-87.37Z"/></g></g></svg>